<svg width="100" height="98" viewBox="0 0 100 98" fill="none" xmlns="http://www.w3.org/2000/svg">
<path d="M45.039 46.1508C44.8843 39.0425 43.3309 32.0284 40.4623 25.4854C22.1554 33.775 8.70752 49.4158 4.11064 67.8719C6.80083 73.8489 10.7021 79.2409 15.5827 83.7277C20.224 68.0776 30.7303 54.6749 45.039 46.1508ZM37.5993 19.8743C34.5329 14.6935 30.6252 10.0261 26.0265 6.05174C7.67928 15.7881 -3.16776 35.9452 0.824273 57.3144C7.5583 41.0675 20.6635 27.5969 37.5993 19.8743ZM75.4228 52.1529C77.1567 32.641 69.9186 13.5398 55.7651 0.460161C52.8013 0.127794 45.3616 -0.615142 35.8251 2.12199C47.493 13.8464 54.2172 29.3785 54.6764 45.6659C61.1017 49.0921 68.1438 51.294 75.4228 52.1529ZM50.2811 54.0102C44.0101 57.7023 38.5222 62.5196 34.1114 68.2042C50.644 79.4069 71.3098 82.887 90.0603 77.5496C94.0935 72.3094 96.988 66.3299 98.5685 59.9733C93.2369 61.2906 87.7596 61.9734 82.2576 62.0066C71.2493 61.987 60.3015 59.2499 50.2811 54.0102ZM30.4621 73.5025C27.3975 78.5858 25.2805 84.1383 23.9901 89.9645C32.9338 95.2875 43.3826 97.7357 53.8459 96.9598C64.3093 96.1839 74.2527 92.2236 82.2576 85.6437C59.495 88.7914 41.2688 80.7951 30.4621 73.5025ZM66.8137 3.00179C77.9632 16.7657 83.4472 34.5179 81.8544 52.583C87.9966 52.5956 94.1016 51.6584 99.9395 49.8068C99.9395 49.4158 100 49.0247 100 48.6337C100 27.5578 86.1489 9.70776 66.8137 3.00179Z" fill="white"/>
</svg>
