<svg width="38" height="35" viewBox="0 0 38 35" fill="none" xmlns="http://www.w3.org/2000/svg">
<path d="M37.015 12.5988L36.0525 9.73651C35.9896 9.54951 35.8094 9.42298 35.6058 9.42298H25.5859L22.5236 0.313528C22.4608 0.126529 22.2806 0 22.077 0H18.9624H15.8488C15.6453 0 15.465 0.126529 15.4022 0.313528L12.3057 9.52225H2.39421C2.19061 9.52225 2.01041 9.64878 1.94758 9.83578L0.985505 12.698L0.0230059 15.5603C-0.0398208 15.7473 0.0289592 15.952 0.193584 16.0677L8.29959 21.759L5.23682 30.8684C5.174 31.0554 5.24278 31.2601 5.4074 31.3758L7.92672 33.1446C7.92719 33.1449 7.92778 33.145 7.92824 33.1453L10.4461 34.9134C10.5286 34.9712 10.6254 35 10.7221 35C10.8189 35 10.9156 34.9712 10.9981 34.9134L19.1042 29.2221L27.1224 34.8522C27.205 34.91 27.3018 34.9388 27.3985 34.9388C27.4953 34.9388 27.592 34.91 27.6745 34.8522L30.1943 33.083L32.7137 31.3142C32.8783 31.1985 32.9471 30.9938 32.8843 30.8068L29.7879 21.5983L37.8064 15.9679C37.971 15.8523 38.0398 15.6476 37.977 15.4606L37.015 12.5988ZM35.2647 10.3306L36.0162 12.5657L33.4924 14.3377L28.5203 17.8283L28.3604 17.3529L27.8632 15.8738L31.8054 13.1062C31.97 12.9905 32.0388 12.7858 31.9759 12.5988C31.9131 12.4117 31.7329 12.2853 31.5293 12.2853L18.7012 12.2848L19.3583 10.3306H22.1307H25.2447H35.2647ZM16.6118 15.5603C16.6116 15.561 16.6119 15.5617 16.6117 15.5624L15.6021 18.5654L13.7936 17.2958L17.4056 6.5532L18.5231 9.87675L18.3839 10.2909L17.6078 12.5983L16.6118 15.5603ZM20.6334 16.1543L21.6328 19.1263L19.0168 20.963L16.4008 19.1265L17.4001 16.1544L20.6334 16.1543ZM18.2179 21.5239L16.4096 22.7935L6.95367 16.1543H10.5694L18.2179 21.5239ZM16.6857 23.7216L19.293 21.8912C19.2935 21.8909 19.2937 21.8905 19.2941 21.8903L21.938 20.034L22.6286 22.0884L21.2987 23.0222L13.1728 28.7272L14.2899 25.4037L16.6857 23.7216ZM21.6208 16.1543H23.8561L27.4678 26.8972L24.5428 24.8428L24.251 23.9753L21.6208 16.1543ZM24.1973 15.2465H20.9746C20.9739 15.2465 20.9733 15.2468 20.9727 15.2468H17.7053L18.396 13.1923L30.0839 13.1927L27.158 15.2467H24.1988C24.1983 15.2468 24.1978 15.2465 24.1973 15.2465ZM21.7358 0.907575L24.5986 9.42302H22.4718L19.6088 0.907575H21.7358ZM13.0938 10.1163C13.0938 10.116 13.0937 10.1157 13.0938 10.1154L16.1899 0.907575H18.6212L21.4842 9.42302H19.3582L17.8522 4.9446C17.7894 4.7576 17.6092 4.63107 17.4055 4.63107C17.2019 4.63107 17.0217 4.7576 16.9589 4.9446L12.9945 16.7347L11.2742 15.5271L12.1312 12.9785L13.0938 10.1163ZM2.73537 10.4298H12.0005L11.3433 12.3845H2.07826L2.73537 10.4298ZM1.02173 15.5273L1.77333 13.2921H11.0381L10.3808 15.2468H5.50831C5.30472 15.2468 5.12447 15.3733 5.06164 15.5603C4.99882 15.7473 5.06764 15.952 5.23226 16.0677L15.6107 23.3545L13.8902 24.5624L13.8888 24.5614L11.6475 22.9874L9.12769 21.2186C9.12773 21.2186 9.12761 21.2185 9.12769 21.2186L1.02173 15.5273ZM6.23555 30.8354L9.09835 22.3198L10.8192 23.5281L7.95607 32.0432L6.23555 30.8354ZM18.8281 28.294C18.8278 28.2942 18.8275 28.2945 18.8273 28.2947L10.7221 33.9852L8.75533 32.6042L10.8662 26.3253L11.6182 24.089L12.4995 24.7078L13.3382 25.2968L11.8327 29.7752C11.7699 29.9622 11.8387 30.1669 12.0033 30.2826C12.1684 30.3982 12.3903 30.3982 12.5554 30.2826L22.934 22.9958L23.5911 24.95L22.5872 25.6549L21.3485 26.5244C21.3481 26.5246 21.3477 26.5247 21.3474 26.5249L18.8281 28.294ZM27.3985 33.9241L19.9031 28.6613L21.6235 27.4533L29.1194 32.7159L27.3985 33.9241ZM31.8855 30.7738L29.9184 32.155L22.4226 26.8923L23.8011 25.9245L24.1432 25.6843L28.085 28.4524C28.2501 28.5681 28.472 28.5681 28.6371 28.4524C28.8018 28.3368 28.8705 28.132 28.8077 27.945L24.8438 16.1544H26.9698L31.8855 30.7738ZM29.4827 20.6905L28.8256 18.7359L31.3494 16.9639L36.3216 13.4733L36.9782 15.4275L29.4827 20.6905Z" fill="white" fill-opacity="0.03"/>
</svg>
