<svg width="125" height="98" viewBox="0 0 125 98" fill="none" xmlns="http://www.w3.org/2000/svg">
<path d="M95.3168 36.4818H65.6293V47.0908C65.6293 54.6118 59.3208 60.7309 51.5669 60.7309C43.813 60.7309 37.5044 54.6118 37.5044 47.0908V24.0542L24.8286 31.4426C21.0591 33.6212 18.7544 37.5806 18.7544 41.8242V50.785L3.12945 59.5374C0.141173 61.2046 -0.893981 64.9177 0.844297 67.8162L16.4693 94.0734C18.188 96.972 22.0161 97.9571 25.0044 96.29L45.1997 84.98H71.8793C78.7738 84.98 84.3793 79.5429 84.3793 72.8555H87.5043C90.9613 72.8555 93.7543 70.1464 93.7543 66.7932V54.6687H95.3168C97.9144 54.6687 100.004 52.6416 100.004 50.122V41.0286C100.004 38.5089 97.9144 36.4818 95.3168 36.4818ZM124.164 29.3966L108.539 3.13934C106.821 0.240819 102.993 -0.744301 100.004 0.922825L79.809 12.2328H59.8481C57.5043 12.2328 55.2192 12.8769 53.227 14.0704L46.6841 18.0298C44.8481 19.1286 43.7544 21.0799 43.7544 23.1638V47.0908C43.7544 51.2776 47.2505 54.6687 51.5669 54.6687C55.8833 54.6687 59.3793 51.2776 59.3793 47.0908V30.4196H95.3168C101.352 30.4196 106.254 35.1747 106.254 41.0286V46.4278L121.879 37.6754C124.868 35.9893 125.883 32.2951 124.164 29.3966Z" fill="white"/>
</svg>
