<svg width="100" height="98" viewBox="0 0 100 98" fill="none" xmlns="http://www.w3.org/2000/svg">
<path d="M97.8754 75.6416L75.0056 53.4615C70.4941 49.0861 63.7562 48.2337 58.3268 50.8286L37.5077 30.6374V18.8749L12.5091 0.691406L0.00976493 12.8137L18.7587 37.0584H30.887L51.7061 57.2497C49.05 62.5153 49.9093 69.05 54.4208 73.4254L77.2906 95.6055C80.142 98.3709 84.7511 98.3709 87.583 95.6055L97.8754 85.6235C100.707 82.8581 100.707 78.388 97.8754 75.6416ZM64.7913 43.309C70.3184 43.309 75.5134 45.3925 79.4194 49.1808L83.2083 52.8553C86.294 51.5484 89.2235 49.7301 91.7625 47.2677C99.0082 40.2405 101.469 30.3533 99.1644 21.3751C98.7347 19.6704 96.5278 19.0833 95.2388 20.3334L80.7084 34.4256L67.4474 32.2853L65.2405 19.4242L79.7709 5.33199C81.0599 4.08187 80.435 1.94152 78.6577 1.50588C69.4004 -0.710239 59.2057 1.67635 51.9795 8.68457C46.4134 14.0828 43.7964 21.2047 43.9331 28.3076L59.9674 43.8583C61.5493 43.4984 63.1898 43.309 64.7913 43.309ZM44.4995 58.8408L33.4259 48.1011L3.66191 76.9864C-1.22064 81.7217 -1.22064 89.3928 3.66191 94.1281C8.54445 98.8634 16.4542 98.8634 21.3367 94.1281L45.476 70.7169C43.9917 66.9476 43.5425 62.8373 44.4995 58.8408ZM12.5091 90.0937C9.93109 90.0937 7.82183 88.048 7.82183 85.5478C7.82183 83.0286 9.91156 81.0019 12.5091 81.0019C15.1066 81.0019 17.1963 83.0286 17.1963 85.5478C17.1963 88.048 15.1066 90.0937 12.5091 90.0937Z" fill="white"/>
</svg>
